<?xml version="1.0" standalone="no"?>
<!DOCTYPE svg PUBLIC "-//W3C//DTD SVG 20010904//EN"
 "http://www.w3.org/TR/2001/REC-SVG-20010904/DTD/svg10.dtd">
<svg version="1.0" xmlns="http://www.w3.org/2000/svg"
 width="300.000000pt" height="300.000000pt" viewBox="0 0 300.000000 300.000000"
 preserveAspectRatio="xMidYMid meet">
<metadata>
Created by potrace 1.14, written by Peter Selinger 2001-2017
</metadata>
<g transform="translate(0.000000,300.000000) scale(0.100000,-0.100000)"
fill="#000000" stroke="none">
<path d="M0 1500 l0 -1500 1500 0 1500 0 0 1500 0 1500 -1500 0 -1500 0 0
-1500z m1012 479 c74 -16 185 -69 237 -115 60 -52 117 -143 144 -229 19 -61
22 -93 22 -245 0 -248 -27 -337 -137 -456 -66 -70 -146 -117 -239 -139 -91
-21 -766 -22 -807 -1 -58 30 -57 22 -57 592 0 515 0 523 21 551 11 15 32 34
45 40 32 17 694 18 771 2z m997 -371 c86 -178 175 -361 198 -408 l40 -85 122
250 c67 138 156 321 198 408 l76 157 134 0 c73 0 133 -2 133 -5 0 -3 -73 -152
-161 -332 -89 -181 -214 -436 -279 -568 -65 -132 -127 -248 -138 -259 -32 -28
-107 -33 -149 -10 -30 16 -47 44 -133 219 -54 110 -179 366 -279 568 -100 203
-181 373 -181 378 0 5 58 9 131 9 l130 0 158 -322z"/>
<path d="M430 1379 l0 -380 273 3 c257 3 274 4 312 25 47 25 95 74 121 123 17
31 19 59 19 230 l0 195 -29 53 c-16 28 -44 63 -62 77 -66 51 -96 55 -375 55
l-259 0 0 -381z"/>
</g>
</svg>
